<svg width="620" height="107" viewBox="0 0 620 107" fill="none" xmlns="http://www.w3.org/2000/svg">
<path d="M17.8755 1.86719H0V104.196H17.8755V1.86719Z" fill="#242424"></path>
<path d="M382.487 85.2266C379.039 85.2266 369.537 83.3795 371.836 70.1626C372.718 65.668 377.808 53.4567 371.692 35.7247C370.174 31.3943 369.722 20.6196 382.282 20.6196H430.408V1.73828H354.761L354.904 104.087H432.03V85.2266H382.528H382.508H382.487Z" fill="#242424"></path>
<path d="M406.726 43.7773H395.91C390.759 43.7773 386.572 48.0051 386.572 53.1975C386.572 58.3899 390.738 62.6176 395.91 62.6176H406.726C411.877 62.6176 416.064 58.3899 416.064 53.1975C416.064 48.0051 411.898 43.7773 406.726 43.7773Z" fill="#242424"></path>
<path d="M201.844 1.86037L202.378 37.5502C202.378 44.5691 202.85 51.6291 206.626 57.314C214.712 69.5458 204.451 77.6319 197.288 69.5458L146.145 1.83984H122.954L122.995 72.809C122.995 75.7028 120.635 79.6432 115.586 79.3148C108.608 78.8838 109.881 64.846 98.9625 51.9369C98.7163 51.6496 61.0771 1.86037 61.0771 1.86037H38.6865V104.189H58.2039V73.1168C58.2039 65.1333 58.3475 54.6255 54.3866 49.0226C47.7987 39.7051 52.6832 32.7683 58.4912 33.5071C61.1797 34.0407 63.4372 37.0987 63.4372 37.0987L113.903 104.168H142.328V69.3611C142.861 54.9128 137.956 46.1699 137.566 45.0411C135.965 40.2592 137.341 36.8729 139.865 35.4363C142.246 34.0818 145.488 34.1023 147.93 36.8729C149.593 38.7816 197.781 104.148 197.781 104.148H221.362V1.88089H201.824L201.844 1.86037Z" fill="#242424"></path>
<path d="M498.954 44.8394C492.756 43.4028 484.301 41.7609 476.071 39.7497C463.06 36.5891 461.685 18.9392 486.517 18.9597C506.589 18.9597 516.194 34.4957 516.194 34.4957L527.173 18.9392C527.173 18.9392 512.869 -0.249985 486.846 0.0783856C451.731 0.550419 447.298 20.9299 447.072 28.6056C447.052 29.4265 445.964 46.3581 462.916 55.1421C469.853 58.7541 484.055 60.9706 491.299 62.3867C496.861 63.495 500.822 64.9932 502.731 66.6966C511.063 74.0849 507.122 89.4979 485.799 87.856C464.537 86.2141 454.502 69.8777 454.502 69.8777L443.173 85.8242C443.173 85.8242 455.056 104.952 485.101 106.409C528.795 108.523 538.482 67.8254 517.22 52.1662C515.003 50.5449 509.524 47.2817 498.954 44.8189V44.8394Z" fill="#242424"></path>
<path d="M620 19.8696V1.8708H599.559C591.883 1.93237 588.6 3.63579 586.712 4.47724C583.058 6.22171 579.385 8.31507 571.997 4.64142C570.232 3.88206 565.901 1.76818 558.616 1.8708H538.318V19.8901H563.09C566.599 19.8901 569.431 22.7223 569.452 26.2318L569.554 104.199H588.641L588.538 26.2523C588.538 22.7429 591.37 19.8901 594.9 19.8901H620V19.8696Z" fill="#242424"></path>
<path d="M285.043 47.3264V63.355H313.775C310.881 83.6525 292.431 87.0183 287.177 87.0183C271.292 87.0183 255.346 77.2492 255.346 53.1345C255.346 42.8934 262.098 19.3328 287.259 19.3328C293.97 19.3328 305.053 20.1127 318.352 32.7345L331.137 17.9167C325.945 12.5807 311.825 0 287.259 0C258.24 0 235.049 20.8926 235.049 53.0114C235.049 85.1301 256.331 106.351 287.157 106.351C308.808 106.351 322.025 90.733 322.025 83.5909V104.032H338.033V47.6138L285.022 47.3059L285.043 47.3264Z" fill="#242424"></path>
</svg>