<svg width="181" height="107" viewBox="0 0 181 107" fill="none" xmlns="http://www.w3.org/2000/svg">
<path d="M1.88118 85.5306C-2.50435 71.7927 0.731083 60.3044 12.0804 49.3848C12.093 49.3721 56.9025 6.98293 56.9025 6.98293C63.9926 0.158187 74.394 -1.65542 83.3989 2.35727C97.4402 8.67647 97.952 22.4713 97.7182 26.9643C97.6803 27.7542 97.6866 34.1429 91.4749 35.0465C87.1652 35.6721 83.0387 32.9422 83.083 27.375C83.1461 18.5408 80.4478 17.239 77.4778 15.5202C76.1002 14.9072 71.0069 13.359 66.969 17.3591C66.95 17.378 22.1342 59.7672 22.1342 59.7672C14.8355 66.8005 13.0346 72.7974 15.7013 81.1451C16.9146 84.9429 14.804 88.9999 10.9872 90.2068C6.42469 91.6413 2.86066 88.5954 1.88118 85.5243V85.5306Z" fill="#242424"></path>
<path d="M97.3379 104.342C80.6173 96.8853 83.145 78.8314 83.145 78.8314C83.581 74.7997 86.3931 71.6148 90.3931 71.6148C94.3932 71.6148 97.3695 74.2626 97.6476 78.8314C97.6476 78.8314 97.2874 88.7209 103.259 91.1728C104.637 91.7857 109.477 93.4667 113.768 89.3339L158.154 46.932C165.472 39.8924 167.355 33.7249 164.631 25.6616C163.355 21.8827 165.402 17.7942 169.194 16.524C172.991 15.2539 177.086 17.6615 178.382 21.0612C182.925 34.5085 179.601 46.3696 168.22 57.3208L123.834 99.7163C119.259 104.127 109.01 109.593 97.3379 104.336V104.342Z" fill="#242424"></path>
<path d="M21.2619 104.32C17.5399 102.848 15.72 98.6581 17.1987 94.9487C18.6774 91.2457 22.8923 89.4384 26.6143 90.9044C32.4722 93.2173 39.2843 91.846 43.9731 87.4036L126.344 9.34246C132.537 3.47824 144.935 -3.42234 159.04 1.91739C162.509 3.36449 164.487 7.66787 162.951 11.352C161.416 15.0297 157.188 16.1798 153.472 15.2446C146.085 13.5321 139.829 16.4895 136.347 19.7944L53.9765 97.8556C48.0617 103.467 35.8024 109.951 21.2556 104.32H21.2619Z" fill="#242424"></path>
</svg>